<svg xmlns="http://www.w3.org/2000/svg" viewBox="0 0 500 371.83"><defs><style>.cls-2{fill:#b1b4c4}.cls-4{fill:#757b89}.cls-10{fill:#e9eaf2}.cls-11{fill:#dadce5}</style><linearGradient id="__15" x1="260.38" y1="338.26" x2="260.38" y2="78.86" gradientUnits="userSpaceOnUse"><stop offset=".21" stop-color="#fff" stop-opacity="0"/><stop offset="1" stop-color="#fff" stop-opacity=".2"/></linearGradient></defs><g id="_2" data-name="2"><g id="_1-2" data-name="1"><g id="Mobile"><path d="M131.79 367.72l-124.66-72c-10.56-6.09-9.24-16.74 3-23.78L311.22 98.1c12.2-7 30.64-7.81 41.2-1.71l124.66 72c10.56 6.1 9.23 16.75-3 23.79L173 366c-12.21 7.05-30.65 7.81-41.21 1.72z" fill="#d6d8e5" opacity=".4"/><path class="cls-2" d="M147.58 358.24l-124.66-72c-10.56-6.1-9.23-16.75 3-23.79L327 88.62c12.2-7 30.64-7.8 41.2-1.71l124.66 72c10.56 6.09 9.24 16.74-3 23.78L188.78 356.53c-12.2 7.04-30.64 7.81-41.2 1.71z"/><path class="cls-2" d="M15.79 275.79v-11.48l13.46 5.08-13.46 6.4zM500 168.83v-11.04l-10.71 6.9 10.71 4.14z"/><path d="M147.58 348.53l-124.66-72c-10.56-6.09-9.23-16.74 3-23.78L327 78.91c12.2-7 30.64-7.81 41.2-1.71l124.66 72c10.56 6.1 9.24 16.75-3 23.79L188.78 346.82c-12.2 7.04-30.64 7.8-41.2 1.71z" fill="#616e84"/><ellipse class="cls-4" cx="36.82" cy="289.29" rx="1.34" ry="2.31" transform="rotate(-30 36.82 289.306)"/><ellipse class="cls-4" cx="42.82" cy="292.75" rx="1.34" ry="2.31" transform="rotate(-30 42.83 292.776)"/><ellipse class="cls-4" cx="48.82" cy="296.22" rx="1.34" ry="2.31" transform="rotate(-30 48.827 296.223)"/><ellipse class="cls-4" cx="54.82" cy="299.68" rx="1.34" ry="2.31" transform="rotate(-30 54.837 299.694)"/><ellipse class="cls-4" cx="106.34" cy="329.43" rx="1.34" ry="2.31" transform="matrix(.87 -.5 .5 .87 -150.47 97.31)"/><ellipse class="cls-4" cx="112.34" cy="332.89" rx="1.34" ry="2.31" transform="rotate(-30 112.358 332.906)"/><ellipse class="cls-4" cx="118.34" cy="336.36" rx="1.34" ry="2.31" transform="rotate(-30 118.35 336.372)"/><ellipse class="cls-4" cx="124.34" cy="339.82" rx="1.34" ry="2.31" transform="rotate(-30 124.36 339.842)"/><path class="cls-4" d="M88.82 321.83l-16.48-9.51a4.52 4.52 0 0 1-1.89-3.61c0-1.4.84-2 1.89-1.43l16.48 9.51a4.53 4.53 0 0 1 1.89 3.62c0 1.39-.84 2.03-1.89 1.42zM462.27 196.15L446.94 205c-1 .56-1.76 0-1.76-1.33a4.2 4.2 0 0 1 1.76-3.35l15.33-8.85c1-.56 1.75 0 1.75 1.33a4.19 4.19 0 0 1-1.75 3.35zM438.79 209.71l-15.33 8.85c-1 .56-1.76 0-1.76-1.33a4.22 4.22 0 0 1 1.76-3.36l15.33-8.87c1-.56 1.75 0 1.75 1.33a4.2 4.2 0 0 1-1.75 3.38z"/><path d="M147.58 346.76l-124.66-72c-10.56-6.1-9.23-16.75 3-23.79L327 77.14c12.2-7 30.64-7.8 41.2-1.71l124.66 72c10.56 6.09 9.24 16.74-3 23.78L188.78 345.05c-12.2 7.04-30.64 7.81-41.2 1.71z" fill="#20232d"/><path d="M479.49 150.28l-48.67-28.1-.12.07c-5.75 3.32-15.07 3.32-20.82 0s-5.75-8.71 0-12l.12-.06-48.67-28.1c-7.39-4.27-19.38-4.27-26.77 0L41.27 251.39c-7.39 4.26-7.39 11.18 0 15.45l118.15 68.22c7.4 4.27 19.38 4.27 26.77 0l293.3-169.33c7.39-4.27 7.39-11.19 0-15.45z" fill="#fff"/><path d="M479.49 165.73L186.2 335.06c-6.68 3.86-17.13 4.22-24.53 1.1a18.47 18.47 0 0 1-2.23-1.1L41.28 266.84a12.48 12.48 0 0 1-4.15-3.6c-2.79-4-1.41-8.65 4.15-11.85L334.56 82.05c7.39-4.26 19.37-4.26 26.77 0L410 110.16l-.12.07c-5.75 3.32-5.75 8.69 0 12s15.08 3.33 20.82 0l.11-.06 48.68 28.1c7.39 4.28 7.39 11.19 0 15.46z" opacity=".5" fill="url(#__15)"/><ellipse cx="417.09" cy="118.08" rx="5.59" ry="3.23" fill="#2b303f"/><path d="M415.44 119a1 1 0 0 1 0-1.92 3.71 3.71 0 0 1 3.31 0 1 1 0 0 1 0 1.92 3.71 3.71 0 0 1-3.31 0z" opacity=".1" fill="#fff"/></g><path class="cls-10" d="M355.43 212.24L251.12 152c-6.06-3.5-5.3-9.61 1.7-13.65L323 97.85c7-4 17.6-4.49 23.66-1L451 157.09c6.06 3.5 5.3 9.61-1.7 13.66l-70.17 40.51c-7.05 4.04-17.64 4.48-23.7.98z"/><path class="cls-11" d="M358.77 142.29l-37.56 5.81 6.03-12.99-58.88 9.11 16.46 9.5 26.64 15.38 27.5 15.88 19.81-42.69z"/><ellipse class="cls-11" cx="407.03" cy="160.89" rx="18.63" ry="10.76"/><path class="cls-10" d="M248.93 273.72L144.62 213.5c-6.06-3.5-5.3-9.61 1.7-13.66l70.16-40.51c7-4 17.6-4.48 23.66-1l104.31 60.22c6.06 3.51 5.3 9.62-1.7 13.66l-70.17 40.51c-7 4.07-17.58 4.5-23.65 1zM236.25 293.72l-70.17 40.5a22.17 22.17 0 0 1-4.41 1.94 18.47 18.47 0 0 1-2.23-1.1L41.28 266.84a12.48 12.48 0 0 1-4.15-3.6 16.39 16.39 0 0 1 2.69-1.91L110 220.82c7-4 17.6-4.48 23.66-1L238 280.06c6 3.5 5.25 9.61-1.75 13.66z"/><path class="cls-11" d="M145.77 265.26l-37.56 5.81 6.03-12.99-58.88 9.11 16.47 9.51 26.63 15.38 27.5 15.87 19.81-42.69z"/><ellipse class="cls-11" cx="194.03" cy="283.87" rx="18.63" ry="10.76"/><path class="cls-10" d="M437.13 141.35l-2.11-1.22 3.53-2.04 2.11 1.22-3.53 2.04zM439.96 142.98l-2.12-1.22 4.94-2.85 2.12 1.22-4.94 2.85zM442.78 144.61l-2.12-1.22 7.06-4.08 2.12 1.22-7.06 4.08zM445.6 146.24l-2.11-1.22 9.88-5.71 2.12 1.22-9.89 5.71zM454.78 151.54l-3.29-1.9 6.58-3.81 3.3 1.9-6.59 3.81zM459.17 154.07l-3.29-1.9 6.59-3.8 3.29 1.9-6.59 3.8zM463.56 156.61l-3.29-1.9 6.59-3.81 3.29 1.91-6.59 3.8z"/><path d="M304.32 61.06L201.14 1.49c-2.8-1.61-5.34-1.87-7.28-1a5.24 5.24 0 0 0-.77.43l-10.77 6 7.84 11v77.86c0 7 4.92 15.52 11 19l40.42 23.33 4.92 12.69-5.16 22.45 11.41-6.34L263.9 151l35 20.22 1.23 10.49 11.3-6.3c2.35-1 3.85-3.55 3.85-7.41V80.08c.02-7-4.89-15.52-10.96-19.02z" fill="#edeef7"/><path d="M292.91 67.4L189.73 7.83c-6.06-3.5-11-.66-11 6.34v88c0 7 4.92 15.52 11 19l40.42 23.33 11.17 28.8 11.17-15.9 40.42 23.34c6.07 3.5 11 .66 11-6.34V86.42c-.02-7-4.91-15.52-11-19.02z" fill="#f8f9ff"/><path d="M263.28 96.42c-.66-8.74-5.79-17.77-12.2-21.48-4.27-2.46-8.19-2.07-10.39.92-2.18-5.57-5.93-10.34-10.14-12.77-6.41-3.7-11.54-.59-12.2 7.39a18.7 18.7 0 0 0 .39 5.7A46.12 46.12 0 0 0 225 91.81l15.7 25.52 16-7.23c3.15-1.48 5.31-4.39 6.24-8.42a15.78 15.78 0 0 0 .34-5.26z" fill="#ff5757"/><ellipse cx="243.83" cy="211.79" rx="30.8" ry="17.78" opacity=".05"/></g></g></svg>