<svg xmlns="http://www.w3.org/2000/svg" class="fill-current"  viewBox="0 0 32.94 36.09"><path d="M15.8 20.88v13.86c0 .9-.38 1.35-1.13 1.35a1.72 1.72 0 0 1-.85-.23l-12-6.93a3.2 3.2 0 0 1-1.28-1.32 3.61 3.61 0 0 1-.52-1.78V11.97c0-.93.38-1.4 1.13-1.4a1.5 1.5 0 0 1 .85.27l12 6.93a4 4 0 0 1 1.8 3.11zM14.67.45a3.34 3.34 0 0 1 1.8-.4 3.64 3.64 0 0 1 1.8.45l12 6.93a1.29 1.29 0 0 1 .76 1.12 1.31 1.31 0 0 1-.76 1.13l-12 6.93a3.64 3.64 0 0 1-1.8.45 3.34 3.34 0 0 1-1.8-.45l-12-6.93a1.32 1.32 0 0 1-.81-1.18 1.3 1.3 0 0 1 .8-1.12zm-1.08 29v-7a4.35 4.35 0 0 0-.4-1.8 8.68 8.68 0 0 0-.86-1.13c-.39-.45-.72-.67-1-.67s-.27.13-.27.4v1.26a.59.59 0 0 0 .36.63.52.52 0 0 1 .18.36v7a1 1 0 0 1-.16.68.43.43 0 0 1-.33.18 1.25 1.25 0 0 1-.63-.23L4.37 25.6a.32.32 0 0 1-.18-.31v-7.07c0-.57.16-.85.49-.85a1 1 0 0 1 .5.16 1 1 0 0 0 .36.15c.21 0 .31-.13.31-.4v-1.23a.75.75 0 0 0-.36-.68 3.17 3.17 0 0 0-1.53-.45c-1.2 0-1.8.8-1.8 2.39v7a3.81 3.81 0 0 0 2 3.51l6.12 3.55a3.38 3.38 0 0 0 1.57.5q1.74-.01 1.74-2.44zm1.27-13.16a3.24 3.24 0 0 0 1.62.36 3.4 3.4 0 0 0 1.62-.36l12-6.93a1 1 0 0 0 .63-.86 1 1 0 0 0-.63-.85L18.1.72a3.4 3.4 0 0 0-1.62-.36 3.24 3.24 0 0 0-1.62.36l-12 6.93a1 1 0 0 0-.63.85 1 1 0 0 0 .63.86zm-1.54-12.6a6.26 6.26 0 0 1 3.06-.77 6.63 6.63 0 0 1 3.24.77c.15.12.23.22.23.31a.39.39 0 0 1-.23.32l-1.12.63a.48.48 0 0 1-.36.13 2.58 2.58 0 0 1-.68-.22 2.68 2.68 0 0 0-1-.23 3 3 0 0 0-1.26.32L9.12 8.5l6.05 3.55a2.36 2.36 0 0 0 1.26.36 2.52 2.52 0 0 0 1.35-.36l6.08-3.55c-.18-.12-.27-.22-.27-.31s.09-.23.27-.32l1.08-.63a.56.56 0 0 1 .72 0c.63.36.94.77.94 1.22a1.53 1.53 0 0 1-.94 1.3l-6.08 3.51a6.18 6.18 0 0 1-3.24.81 5.83 5.83 0 0 1-3.06-.81L7.21 9.76a1.54 1.54 0 0 1-1-1.3c0-.45.32-.86 1-1.22zm.18 9.36a6.14 6.14 0 0 0 2.93.72 6.29 6.29 0 0 0 3-.72l6.08-3.55a1.1 1.1 0 0 0 .76-1 1 1 0 0 0-.34-.63.89.89 0 0 0-.6-.36.39.39 0 0 0-.18 0l-1.13.68c.15.12.23.22.23.31a.39.39 0 0 1-.23.32l-6.06 3.51a3.07 3.07 0 0 1-1.53.4 2.75 2.75 0 0 1-1.44-.4L8.91 8.82a.38.38 0 0 1-.22-.32.37.37 0 0 1 .22-.31l6.08-3.51a2.92 2.92 0 0 1 1.44-.41 2.88 2.88 0 0 1 1 .23 3 3 0 0 0 .72.22.26.26 0 0 0 .18 0l1.11-.67a5.63 5.63 0 0 0-3.06-.72 6 6 0 0 0-2.88.72L7.43 7.51c-.51.3-.77.62-.77.95s.26.69.77 1zm17.46-2.21a1.69 1.69 0 0 1 .86-.27c.75 0 1.12.47 1.12 1.4v13.86a3.54 3.54 0 0 1-.54 1.78 3.5 3.5 0 0 1-1.26 1.32l-12 6.93a1.76 1.76 0 0 1-.86.23c-.75 0-1.12-.45-1.12-1.35V20.88a4 4 0 0 1 1.8-3.11zm-13.45 23.9c0 .69.25 1 .76 1a2.07 2.07 0 0 0 .68-.18l12-6.93a3.35 3.35 0 0 0 1.15-1.23 3.31 3.31 0 0 0 .47-1.6V11.97c0-.69-.25-1-.76-1a2.07 2.07 0 0 0-.68.18l-12 6.9a3.3 3.3 0 0 0-1.15 1.24 3.21 3.21 0 0 0-.47 1.6zM29.57 14.4c.81 0 1.21.52 1.21 1.57v7.08a6 6 0 0 1-.22 1.62 6.1 6.1 0 0 1-.7 1.52 6.66 6.66 0 0 1-1 1.3 4.59 4.59 0 0 1-1.28.95l-6.12 3.55a2 2 0 0 1-1 .32c-.81 0-1.21-.53-1.21-1.58v-7.06a5.58 5.58 0 0 1 .22-1.55 6.5 6.5 0 0 1 .65-1.51 9.36 9.36 0 0 1 1-1.35 5.13 5.13 0 0 1 1.29-1 .69.69 0 0 1 .22 0c.21 0 .32.12.32.36v1.3a.71.71 0 0 1-.36.63 2.46 2.46 0 0 0-1.31 2.25v7.07l6.12-3.56a2.34 2.34 0 0 0 1.31-2.25v-7.14a1.25 1.25 0 0 1-.27.09c-.18 0-.27-.14-.27-.41v-1.26a.75.75 0 0 1 .45-.69 1.8 1.8 0 0 1 .95-.25z" fill="#2566b1"></path></svg>